<?xml version="1.0" encoding="utf-8"?>
<!-- Generator: Adobe Illustrator 27.3.1, SVG Export Plug-In . SVG Version: 6.00 Build 0)  -->
<svg version="1.1" id="Слой_1" xmlns="http://www.w3.org/2000/svg" xmlns:xlink="http://www.w3.org/1999/xlink" x="0px" y="0px"
	 viewBox="0 0 48 48" style="enable-background:new 0 0 48 48;" xml:space="preserve">
<style type="text/css">
	.st0{fill:#AFAFAF;}
</style>
<path class="st0" d="M9.8,42c-0.5,0-1-0.2-1.4-0.5c-0.4-0.3-0.7-0.7-0.8-1.2L1.9,19.9c-0.1-0.5,0-0.9,0.3-1.3
	C2.5,18.2,2.9,18,3.5,18h10l9.3-13.5c0.2-0.2,0.4-0.4,0.5-0.5c0.2-0.1,0.4-0.2,0.7-0.2c0.3,0,0.5,0.1,0.7,0.2
	c0.2,0.1,0.4,0.3,0.6,0.5L34.4,18h10.2c0.5,0,0.9,0.2,1.2,0.6c0.3,0.4,0.4,0.8,0.3,1.3l-5.7,20.4c-0.1,0.5-0.4,0.9-0.8,1.2
	c-0.4,0.3-0.9,0.5-1.4,0.5H9.8z M10.3,39h27.4l5-18H5.3L10.3,39z M24,33c0.8,0,1.5-0.3,2.1-0.9c0.6-0.6,0.9-1.3,0.9-2.1
	c0-0.8-0.3-1.5-0.9-2.1C25.5,27.3,24.8,27,24,27c-0.8,0-1.5,0.3-2.1,0.9C21.3,28.5,21,29.2,21,30c0,0.8,0.3,1.5,0.9,2.1
	C22.5,32.7,23.2,33,24,33z M17.1,18h13.6L24,8L17.1,18z M10.3,39h27.4H10.3z"/>
</svg>
