<svg width="97" height="22" viewBox="0 0 97 22" fill="none" xmlns="http://www.w3.org/2000/svg">
<g clip-path="url(#clip0_25_5907)">
<path d="M0 22H22.2666V0H0V22ZM14.2747 1.68116C18.2172 2.95652 21.0528 6.63768 21.0625 10.9952C21.0722 15.285 18.2852 18.9565 14.2747 20.3188V1.68116ZM11.1284 1.17874C11.8373 1.17874 12.5948 1.2657 13.2259 1.40097C13.2259 6.38647 8.34148 10.4831 3.31134 10.4831H1.20412C1.55371 5.37198 5.83612 1.17874 11.1284 1.17874ZM3.31134 11.5169C8.35119 11.5169 13.2259 15.6135 13.2259 20.599C12.5948 20.7246 11.7985 20.8213 11.1284 20.8213C5.82641 20.8116 1.40805 16.6087 1.20412 11.5169H3.31134ZM29.7244 12.9275V11.5459H34.3564V9.77778H29.7244V7.20773H34.6574V5.44928H27.8308V12.8696C27.8308 14.744 28.6368 16.029 30.5304 16.2899C30.5692 16.2995 30.6081 16.2995 30.6372 16.2995H30.676C30.8703 16.3188 31.0645 16.3382 31.2781 16.3382H34.7837V14.5797H31.2878C30.6858 14.5604 29.7244 14.2705 29.7244 12.9275ZM36.1334 10.5797V16.3285H38.0367V5.43961H36.1334V10.5797ZM43.4747 8.2029C41.0762 8.2029 39.2797 9.83575 39.2797 12.3768V12.4444C39.2797 14.9275 41.0179 16.5314 43.5233 16.5314C44.7274 16.5314 45.8538 16.2029 46.8929 15.1208L45.747 14.0193C45.145 14.6184 44.5526 14.9275 43.5815 14.9275C42.1735 14.9275 41.2316 14.1159 41.1733 12.8599H47.3978C47.427 12.5507 47.427 12.2029 47.427 12.2029C47.427 9.97101 45.8538 8.2029 43.4747 8.2029ZM41.2121 11.5266C41.2995 10.57 42.2803 9.7971 43.465 9.7971C44.5817 9.7971 45.4848 10.5797 45.4848 11.5266H41.2121ZM52.7678 9.88406C53.6224 9.88406 54.2536 10.1932 54.7974 10.744L55.9724 9.53623C55.0499 8.57005 53.9525 8.17391 52.7678 8.17391C50.3499 8.17391 48.4077 9.94203 48.4077 12.3575C48.4077 14.7729 50.3402 16.5507 52.7581 16.5507C53.9428 16.5507 55.0401 16.1546 55.9627 15.1787L54.7877 13.971C54.2439 14.5217 53.6127 14.8406 52.7581 14.8406C51.3598 14.8406 50.2916 13.7874 50.2916 12.3575C50.3013 10.9372 51.3598 9.88406 52.7678 9.88406ZM59.0507 12.9275V10.1546H60.7792V8.44444H59.0604V5.42995H57.1571V13.0435C57.2153 14.8116 58.0213 16.0193 59.8566 16.2705C59.8955 16.2802 59.9343 16.2899 59.9732 16.2899H60.0023C60.1965 16.3092 60.4004 16.3285 60.6044 16.3285H60.8083V14.57H60.6141C60.012 14.5604 59.0507 14.2705 59.0507 12.9275ZM64.2556 9.62319V8.45411H62.3717V16.3285H64.2556V12.1836C64.2556 10.8889 65.0907 10.0676 66.4016 10.0676C66.7027 10.0676 66.9746 10.0966 67.1882 10.1449V8.3285C67.1105 8.30918 66.8289 8.28019 66.625 8.28019C65.4888 8.28985 64.6343 8.81159 64.2556 9.62319ZM71.8299 8.21256C69.4119 8.21256 67.4795 10.029 67.4795 12.3865C67.4795 14.744 69.4022 16.5604 71.8299 16.5604C74.2284 16.5604 76.1803 14.744 76.1803 12.3865C76.1803 10.029 74.2382 8.21256 71.8299 8.21256ZM71.8299 14.8599C70.4219 14.8599 69.3634 13.7778 69.3634 12.3865C69.3634 10.9952 70.4219 9.91304 71.8299 9.91304C73.2282 9.91304 74.2964 10.9952 74.2964 12.3865C74.2964 13.7778 73.2282 14.8599 71.8299 14.8599ZM77.3456 10.3865V16.3188H79.2489V5.42995H77.3456V10.3865ZM86.0949 13.0242C86.0949 14.2705 85.3569 14.8019 84.3567 14.8019C83.3662 14.8019 82.6185 14.2705 82.6185 13.0435V8.44444H80.7055V13.1981C80.7055 15.4493 82.366 16.5314 84.3373 16.5314C86.328 16.5314 88.0079 15.4396 88.0079 13.1594V10.7343V8.45411H86.0949V13.0242ZM95.1841 13.8068L93.9897 12.1546L95.4754 10.1642L96.7378 8.45411H94.6694L92.9409 10.8116L91.2027 8.45411H89.1441L90.319 10.0483L91.8922 12.1739L90.2414 14.4444L88.8722 16.3382H90.9114L92.9312 13.5556L94.9608 16.3382H97L95.1841 13.8068Z" fill="#0075FF"/>
</g>
<defs>
<clipPath id="clip0_25_5907">
<rect width="97" height="22" fill="white"/>
</clipPath>
</defs>
</svg>
