<svg width="73" height="74" viewBox="0 0 73 74" fill="none" xmlns="http://www.w3.org/2000/svg">
<path d="M20.064 52.1512C28.3186 52.1512 35.0109 45.3676 35.0109 37C35.0109 28.6324 28.3189 21.8488 20.064 21.8488C11.8091 21.8488 5.11722 28.6324 5.11722 37C5.11722 45.3676 11.8091 52.1512 20.064 52.1512Z" fill="#A70B52"/>
<path d="M23.7035 42.332H20.6083V30.4732H19.4604V43.5022H20.6083V43.4945H23.7035V42.332Z" fill="white"/>
<path d="M31.4293 37.4852H23.7217V36.3216H32.5583C32.57 36.5466 32.5757 36.7719 32.5757 37C32.5757 44.0051 26.9737 49.6834 20.0637 49.6834C13.1536 49.6834 7.55161 44.0051 7.55161 37C7.55161 29.9949 13.1536 24.3165 20.064 24.3165C20.2462 24.3165 20.428 24.3204 20.6086 24.3284L20.6071 25.4832C20.4262 25.4747 20.2451 25.4705 20.064 25.4705C13.7826 25.4705 8.69003 30.6325 8.69003 37C8.69003 43.3678 13.7823 48.5294 20.064 48.5294C26.1743 48.5294 31.1589 43.6454 31.4263 37.5179L31.4293 37.4852Z" fill="white"/>
<path d="M15.3967 33.9837C15.863 33.9837 16.3102 33.7959 16.64 33.4617C16.9697 33.1274 17.1549 32.6741 17.1549 32.2014C17.1549 31.7287 16.9697 31.2754 16.64 30.9411C16.3102 30.6069 15.863 30.4191 15.3967 30.4191C14.9304 30.4191 14.4832 30.6069 14.1535 30.9411C13.8238 31.2754 13.6385 31.7287 13.6385 32.2014C13.6385 32.6741 13.8238 33.1274 14.1535 33.4617C14.4832 33.7959 14.9304 33.9837 15.3967 33.9837Z" fill="white"/>
<path d="M42.4326 44.437H53.1128V41.1673H46.3539V29.4589H42.4326V44.437ZM66.0169 30.5135C64.7925 29.5518 63.2159 29.0643 61.3344 29.0643C59.1003 29.0643 57.2336 29.7599 55.9358 31.0744C54.5811 32.4484 53.8638 34.4723 53.8638 36.9274C53.8638 39.5503 54.622 41.7635 55.9986 43.1578C57.0795 44.2531 58.5194 44.8309 60.1672 44.8309C63.7843 44.8309 64.6164 42.633 64.6164 42.633V44.4362H67.8828V35.9772H61.3806V38.6243H64.3732C64.3732 38.6243 64.402 41.957 61.3132 41.957C60.5285 41.957 59.8294 41.6683 59.2916 41.1231C58.4535 40.2743 58.0104 38.8439 58.0104 36.9896C58.0104 33.9184 59.2147 32.0848 61.231 32.0848C62.4906 32.0848 63.4374 32.8688 63.6802 34.057H67.84C67.6245 32.3305 67.1572 31.4307 66.0169 30.5135Z" fill="#808183"/>
</svg>
