<svg width="171" height="32" viewBox="0 0 171 32" fill="none" xmlns="http://www.w3.org/2000/svg">
<circle cx="16" cy="16" r="14.5" stroke="#00FFB2" stroke-width="3"/>
<circle cx="16" cy="16" r="7.5" stroke="#00855D" stroke-width="3"/>
<path d="M48.7102 10.9901V8.45455H60.6562V10.9901H56.2031V23H53.1634V10.9901H48.7102ZM65.9563 23.2131C64.8342 23.2131 63.8683 22.9858 63.0586 22.5312C62.2537 22.072 61.6334 21.4233 61.1978 20.5852C60.7622 19.7424 60.5444 18.7457 60.5444 17.5952C60.5444 16.473 60.7622 15.4882 61.1978 14.6406C61.6334 13.7931 62.2466 13.1326 63.0373 12.6591C63.8327 12.1856 64.7655 11.9489 65.8356 11.9489C66.5553 11.9489 67.2253 12.0649 67.8455 12.2969C68.4705 12.5241 69.015 12.8674 69.479 13.3267C69.9478 13.786 70.3124 14.3636 70.5728 15.0597C70.8332 15.7509 70.9634 16.5606 70.9634 17.4886V18.3196H61.7518V16.4446H68.1154C68.1154 16.009 68.0207 15.6231 67.8313 15.2869C67.6419 14.9508 67.3791 14.688 67.043 14.4986C66.7115 14.3045 66.3256 14.2074 65.8853 14.2074C65.426 14.2074 65.0188 14.3139 64.6637 14.527C64.3133 14.7353 64.0387 15.017 63.8398 15.3722C63.641 15.7225 63.5392 16.1132 63.5344 16.544V18.3267C63.5344 18.8665 63.6339 19.3329 63.8327 19.7259C64.0363 20.1188 64.3228 20.4219 64.6921 20.6349C65.0614 20.848 65.4994 20.9545 66.006 20.9545C66.3422 20.9545 66.65 20.9072 66.9293 20.8125C67.2087 20.7178 67.4478 20.5758 67.6467 20.3864C67.8455 20.197 67.997 19.965 68.1012 19.6903L70.8995 19.875C70.7575 20.5473 70.4663 21.1345 70.0259 21.6364C69.5903 22.1335 69.0269 22.5218 68.3356 22.8011C67.649 23.0758 66.8559 23.2131 65.9563 23.2131ZM75.271 12.0909L77.2738 15.9048L79.3263 12.0909H82.43L79.2695 17.5455L82.5153 23H79.4258L77.2738 19.2287L75.1573 23H72.0323L75.271 17.5455L72.146 12.0909H75.271ZM91.8192 16.3381V18.7173H86.1232V16.3381H91.8192ZM87.1175 12.0909V23H84.2269V12.0909H87.1175ZM93.7156 12.0909V23H90.8462V12.0909H93.7156ZM100.992 23.2131C99.8886 23.2131 98.9345 22.9787 98.1296 22.5099C97.3294 22.0365 96.7115 21.3783 96.2759 20.5355C95.8403 19.688 95.6225 18.7055 95.6225 17.5881C95.6225 16.4612 95.8403 15.4763 96.2759 14.6335C96.7115 13.786 97.3294 13.1278 98.1296 12.6591C98.9345 12.1856 99.8886 11.9489 100.992 11.9489C102.095 11.9489 103.047 12.1856 103.847 12.6591C104.652 13.1278 105.272 13.786 105.708 14.6335C106.143 15.4763 106.361 16.4612 106.361 17.5881C106.361 18.7055 106.143 19.688 105.708 20.5355C105.272 21.3783 104.652 22.0365 103.847 22.5099C103.047 22.9787 102.095 23.2131 100.992 23.2131ZM101.006 20.8693C101.508 20.8693 101.927 20.7273 102.263 20.4432C102.599 20.1544 102.853 19.7614 103.023 19.2642C103.198 18.767 103.286 18.2012 103.286 17.5668C103.286 16.9323 103.198 16.3665 103.023 15.8693C102.853 15.3722 102.599 14.9792 102.263 14.6903C101.927 14.4015 101.508 14.2571 101.006 14.2571C100.499 14.2571 100.073 14.4015 99.7276 14.6903C99.3867 14.9792 99.1287 15.3722 98.9535 15.8693C98.783 16.3665 98.6978 16.9323 98.6978 17.5668C98.6978 18.2012 98.783 18.767 98.9535 19.2642C99.1287 19.7614 99.3867 20.1544 99.7276 20.4432C100.073 20.7273 100.499 20.8693 101.006 20.8693ZM113.257 23.2131C112.14 23.2131 111.179 22.9763 110.374 22.5028C109.574 22.0246 108.958 21.3617 108.527 20.5142C108.101 19.6667 107.888 18.6913 107.888 17.5881C107.888 16.4706 108.104 15.4905 108.534 14.6477C108.97 13.8002 109.588 13.1397 110.388 12.6662C111.188 12.188 112.14 11.9489 113.243 11.9489C114.195 11.9489 115.028 12.1217 115.743 12.4673C116.458 12.813 117.024 13.2983 117.441 13.9233C117.857 14.5483 118.087 15.2822 118.13 16.125H115.275C115.194 15.5805 114.981 15.1425 114.635 14.8111C114.294 14.4749 113.847 14.3068 113.293 14.3068C112.824 14.3068 112.415 14.4347 112.064 14.6903C111.719 14.9413 111.449 15.3082 111.255 15.7912C111.06 16.2741 110.963 16.8589 110.963 17.5455C110.963 18.2415 111.058 18.8333 111.248 19.321C111.442 19.8087 111.714 20.1804 112.064 20.4361C112.415 20.6918 112.824 20.8196 113.293 20.8196C113.639 20.8196 113.949 20.7486 114.223 20.6065C114.503 20.4645 114.732 20.2585 114.912 19.9886C115.097 19.714 115.218 19.3849 115.275 19.0014H118.13C118.082 19.8348 117.855 20.5687 117.448 21.2031C117.045 21.8329 116.489 22.3253 115.779 22.6804C115.069 23.0355 114.228 23.2131 113.257 23.2131ZM125.287 26.7074V8.45455H128.305V26.7074H125.287ZM125.287 23.2131C124.449 23.2131 123.684 23.0781 122.993 22.8082C122.302 22.5336 121.705 22.1477 121.203 21.6506C120.701 21.1487 120.313 20.5545 120.038 19.8679C119.764 19.1766 119.626 18.4167 119.626 17.5881C119.626 16.75 119.764 15.9877 120.038 15.3011C120.313 14.6098 120.701 14.0156 121.203 13.5185C121.705 13.0166 122.302 12.6307 122.993 12.3608C123.684 12.0862 124.449 11.9489 125.287 11.9489H125.848V23.2131H125.287ZM125.287 20.8551H125.621V14.3068H125.287C124.88 14.3068 124.518 14.392 124.2 14.5625C123.883 14.733 123.616 14.9673 123.398 15.2656C123.18 15.5592 123.014 15.9048 122.901 16.3026C122.792 16.7003 122.737 17.1288 122.737 17.5881C122.737 18.1941 122.837 18.7457 123.036 19.2429C123.234 19.7353 123.526 20.1283 123.909 20.4219C124.293 20.7107 124.752 20.8551 125.287 20.8551ZM128.305 23.2131H127.744V11.9489H128.305C129.143 11.9489 129.908 12.0862 130.599 12.3608C131.291 12.6307 131.887 13.0166 132.389 13.5185C132.891 14.0156 133.279 14.6098 133.554 15.3011C133.829 15.9877 133.966 16.75 133.966 17.5881C133.966 18.4167 133.829 19.1766 133.554 19.8679C133.279 20.5545 132.891 21.1487 132.389 21.6506C131.887 22.1477 131.291 22.5336 130.599 22.8082C129.908 23.0781 129.143 23.2131 128.305 23.2131ZM128.305 20.8551C128.713 20.8551 129.075 20.7723 129.392 20.6065C129.709 20.4361 129.977 20.2017 130.195 19.9034C130.412 19.6051 130.578 19.2595 130.692 18.8665C130.805 18.4687 130.862 18.0426 130.862 17.5881C130.862 16.9773 130.76 16.4257 130.557 15.9332C130.358 15.4361 130.069 15.0407 129.69 14.7472C129.312 14.4536 128.85 14.3068 128.305 14.3068H127.972V20.8551H128.305ZM140.917 23.2131C139.795 23.2131 138.829 22.9858 138.02 22.5312C137.215 22.072 136.594 21.4233 136.159 20.5852C135.723 19.7424 135.505 18.7457 135.505 17.5952C135.505 16.473 135.723 15.4882 136.159 14.6406C136.594 13.7931 137.208 13.1326 137.998 12.6591C138.794 12.1856 139.726 11.9489 140.797 11.9489C141.516 11.9489 142.186 12.0649 142.806 12.2969C143.431 12.5241 143.976 12.8674 144.44 13.3267C144.909 13.786 145.273 14.3636 145.534 15.0597C145.794 15.7509 145.924 16.5606 145.924 17.4886V18.3196H136.713V16.4446H143.076C143.076 16.009 142.982 15.6231 142.792 15.2869C142.603 14.9508 142.34 14.688 142.004 14.4986C141.672 14.3045 141.287 14.2074 140.846 14.2074C140.387 14.2074 139.98 14.3139 139.625 14.527C139.274 14.7353 139 15.017 138.801 15.3722C138.602 15.7225 138.5 16.1132 138.495 16.544V18.3267C138.495 18.8665 138.595 19.3329 138.794 19.7259C138.997 20.1188 139.284 20.4219 139.653 20.6349C140.022 20.848 140.46 20.9545 140.967 20.9545C141.303 20.9545 141.611 20.9072 141.89 20.8125C142.17 20.7178 142.409 20.5758 142.608 20.3864C142.806 20.197 142.958 19.965 143.062 19.6903L145.86 19.875C145.718 20.5473 145.427 21.1345 144.987 21.6364C144.551 22.1335 143.988 22.5218 143.297 22.8011C142.61 23.0758 141.817 23.2131 140.917 23.2131ZM147.899 27.0909V12.0909H150.882V13.9233H151.017C151.149 13.6297 151.341 13.3314 151.592 13.0284C151.848 12.7206 152.179 12.465 152.586 12.2614C152.998 12.053 153.51 11.9489 154.12 11.9489C154.916 11.9489 155.65 12.1572 156.322 12.5739C156.994 12.9858 157.532 13.6084 157.934 14.4418C158.337 15.2704 158.538 16.3097 158.538 17.5597C158.538 18.7765 158.342 19.804 157.949 20.642C157.56 21.4754 157.03 22.1075 156.358 22.5384C155.69 22.9645 154.942 23.1776 154.113 23.1776C153.526 23.1776 153.027 23.0805 152.615 22.8864C152.208 22.6922 151.874 22.4484 151.613 22.1548C151.353 21.8565 151.154 21.5559 151.017 21.2528H150.924V27.0909H147.899ZM150.86 17.5455C150.86 18.1941 150.95 18.7599 151.13 19.2429C151.31 19.7259 151.571 20.1023 151.912 20.3722C152.252 20.6373 152.667 20.7699 153.154 20.7699C153.647 20.7699 154.064 20.6349 154.404 20.3651C154.745 20.0904 155.003 19.7116 155.179 19.2287C155.359 18.741 155.449 18.1799 155.449 17.5455C155.449 16.9157 155.361 16.3617 155.186 15.8835C155.011 15.4053 154.752 15.0312 154.412 14.7614C154.071 14.4915 153.652 14.3565 153.154 14.3565C152.662 14.3565 152.245 14.4867 151.904 14.7472C151.568 15.0076 151.31 15.3769 151.13 15.8551C150.95 16.3333 150.86 16.8968 150.86 17.5455ZM163.666 23.206C162.97 23.206 162.35 23.0852 161.805 22.8438C161.261 22.5975 160.83 22.2353 160.512 21.7571C160.2 21.2741 160.044 20.6728 160.044 19.9531C160.044 19.3471 160.155 18.8381 160.377 18.4261C160.6 18.0142 160.903 17.6828 161.287 17.4318C161.67 17.1809 162.106 16.9915 162.593 16.8636C163.086 16.7358 163.602 16.6458 164.142 16.5938C164.776 16.5275 165.288 16.4659 165.676 16.4091C166.064 16.3475 166.346 16.2576 166.521 16.1392C166.696 16.0208 166.784 15.8456 166.784 15.6136V15.571C166.784 15.1212 166.642 14.7732 166.358 14.527C166.078 14.2808 165.681 14.1577 165.164 14.1577C164.62 14.1577 164.187 14.2784 163.865 14.5199C163.543 14.7566 163.33 15.0549 163.225 15.4148L160.427 15.1875C160.569 14.5246 160.849 13.9517 161.265 13.4688C161.682 12.9811 162.219 12.607 162.877 12.3466C163.54 12.0814 164.307 11.9489 165.179 11.9489C165.785 11.9489 166.365 12.0199 166.919 12.1619C167.477 12.304 167.972 12.5241 168.403 12.8224C168.839 13.1207 169.182 13.5043 169.433 13.973C169.684 14.437 169.809 14.9934 169.809 15.642V23H166.94V21.4872H166.855C166.68 21.8281 166.445 22.1288 166.152 22.3892C165.858 22.6449 165.505 22.8461 165.093 22.9929C164.681 23.1349 164.206 23.206 163.666 23.206ZM164.532 21.1179C164.977 21.1179 165.37 21.0303 165.711 20.8551C166.052 20.6752 166.32 20.4337 166.514 20.1307C166.708 19.8277 166.805 19.4844 166.805 19.1009V17.9432C166.71 18.0047 166.58 18.0616 166.414 18.1136C166.253 18.161 166.071 18.206 165.868 18.2486C165.664 18.2865 165.46 18.322 165.257 18.3551C165.053 18.3835 164.868 18.4096 164.703 18.4332C164.348 18.4853 164.038 18.5682 163.772 18.6818C163.507 18.7955 163.301 18.9493 163.154 19.1435C163.008 19.3329 162.934 19.5696 162.934 19.8537C162.934 20.2656 163.083 20.5805 163.382 20.7983C163.685 21.0114 164.068 21.1179 164.532 21.1179Z" fill="url(#paint0_linear_34_2)"/>
<defs>
<linearGradient id="paint0_linear_34_2" x1="109.5" y1="4" x2="109.5" y2="28" gradientUnits="userSpaceOnUse">
<stop stop-color="#00FF75"/>
<stop offset="1" stop-color="white" stop-opacity="0"/>
</linearGradient>
</defs>
</svg>
