<svg width="36" height="36" viewBox="0 0 36 36" fill="none" xmlns="http://www.w3.org/2000/svg">
<path d="M32.1461 3.74959C28.7605 0.376949 23.8924 0 17.9433 0C11.9868 0 7.1113 0.381295 3.72702 3.76305C0.343236 7.1434 0 12.0111 0 17.9607C0 23.9114 0.343236 28.7806 3.72842 32.1621C7.11249 35.5444 11.9875 35.8866 17.9433 35.8866C23.8992 35.8866 28.7734 35.5444 32.1573 32.1621C35.5423 28.7799 35.8866 23.9114 35.8866 17.9607C35.8866 12.0034 35.5387 7.1305 32.1461 3.74959Z" fill="#FF6900"/>
<path d="M28.3556 11.1168C28.479 11.1168 28.5816 11.2161 28.5816 11.3384V24.6126C28.5816 24.7328 28.479 24.8326 28.3556 24.8326H25.4471C25.3224 24.8326 25.2209 24.7328 25.2209 24.6126V11.3384C25.2209 11.2162 25.3222 11.1168 25.4471 11.1168H28.3556ZM15.7338 11.1168C17.9279 11.1168 20.222 11.2174 21.3534 12.3497C22.4659 13.4639 22.5863 15.6823 22.5909 17.8368V24.6125C22.5909 24.7328 22.4896 24.8326 22.3654 24.8326H19.4573C19.3327 24.8326 19.2309 24.7328 19.2309 24.6125V17.7202C19.2278 16.517 19.1587 15.2803 18.5381 14.6578C18.004 14.1223 17.0075 13.9996 15.9711 13.9742H10.6995C10.5758 13.9742 10.4746 14.0736 10.4746 14.1939V24.6126C10.4746 24.7328 10.3722 24.8326 10.2477 24.8326H7.33784C7.2135 24.8326 7.11348 24.7328 7.11348 24.6126V11.3384C7.11348 11.2162 7.21343 11.1168 7.33784 11.1168H15.7338ZM16.3848 16.4036C16.5086 16.4036 16.6091 16.5025 16.6091 16.6238V24.6126C16.6091 24.7328 16.5084 24.8326 16.3848 24.8326H13.3299C13.2043 24.8326 13.1036 24.7328 13.1036 24.6126V16.6238C13.1036 16.5025 13.2043 16.4036 13.3299 16.4036H16.3848Z" fill="white"/>
</svg>
