<svg xmlns="http://www.w3.org/2000/svg" version="1.1" xmlns:xlink="http://www.w3.org/1999/xlink" xmlns:svgjs="http://svgjs.com/svgjs" width="512" height="512" x="0" y="0" viewBox="0 0 511.548 511.548" style="enable-background:new 0 0 512 512" xml:space="preserve" class=""><g><path d="M394.441 191.548C307.52 95.547 287.775 20.882 287.775 20.882s-15.054 6.718-32 22.11l-21.333 244.556 21.333 209h.001c104.842-.001 189.833-84.992 189.833-189.833-.001-43.306-24.186-85.366-51.168-115.167z" style="" fill="#ff6200" data-original="#ff6200" class=""></path><path d="M223.775 84.882c-10.873 21.747-13.434 46.265-13.33 65.08.1 18.252-12.758 34.004-30.655 37.584a38.137 38.137 0 0 1-34.447-10.43l-17.568-17.568s-26.044 35.911-30.507 42.667c-20.047 30.346-31.613 66.786-31.321 105.945.778 104.581 85.244 188.388 189.828 188.388V42.992c-11.085 10.068-22.978 23.846-32 41.89z" style="" fill="#fd7d21" data-original="#fd7d21"></path><path d="M405.561 181.48c-43.372-47.903-69.147-90.072-83.134-117.013-15.148-29.181-20.112-47.276-20.15-47.42L297.768 0l-16.104 7.183c-.917.409-11.941 5.434-25.89 16.238l-10.667 18.794 10.667 22.117c8.336-9.351 16.934-16.341 23.849-21.18 11.282 28.696 39.881 87.981 103.699 158.465 14.217 15.702 47.285 57.376 47.285 105.099 0 96.403-78.43 174.833-174.832 174.833h-.001l-10.667 19.333 10.667 10.667h.001c112.945-.001 204.832-91.888 204.832-204.833.001-40.952-20.063-86.598-55.046-125.236z" style="" fill="#ffb62d" data-original="#ffb62d" class=""></path><path d="M132.499 430.925c-32.898-32.646-51.206-76.285-51.553-122.876-.26-34.878 9.712-68.616 28.837-97.565 2.335-3.534 11.702-16.602 19.833-27.879l5.119 5.119a53.027 53.027 0 0 0 47.996 14.532c24.888-4.978 42.852-27.004 42.713-52.375-.087-15.701 1.881-38.558 11.746-58.29 5.351-10.702 11.883-19.741 18.584-27.258V23.421c-14.692 11.381-32.628 29.175-45.417 54.753-12.515 25.031-15.018 52.9-14.913 71.87.061 11.04-7.761 20.626-18.598 22.793a23.1 23.1 0 0 1-20.898-6.328l-29.997-29.997-10.319 14.229c-1.071 1.477-26.289 36.256-30.88 43.205-22.419 33.937-34.109 73.47-33.806 114.325.406 54.565 21.864 105.686 60.421 143.948 38.554 38.259 89.839 59.329 144.407 59.329v-30c-46.598 0-90.378-17.978-123.275-50.623z" style="" fill="#fdcb02" data-original="#fdcb02" class=""></path><path d="M255.775 206.042c-.111 0-.222.004-.333.004l-24.997 117.329 24.997 117.329c.111 0 .222.004.333.004 64.801 0 117.333-52.532 117.333-117.333s-52.532-117.333-117.333-117.333z" style="" fill="#ed3800" data-original="#ed3800" class=""></path><path d="M138.441 323.375c0 64.69 52.352 117.149 117 117.329V206.046c-64.647.18-117 52.639-117 117.329z" style="" fill="#ff4b00" data-original="#ff4b00" class=""></path><path d="M319.432 254.503h-33.255l-30.736 45.01-10.333 41.369 10.333 7.332zM306.248 317.472c-20.858 0-36.601 13.971-36.601 38.372 0 24.597 15.742 38.371 36.601 38.371s36.601-13.774 36.601-38.371c0-24.401-15.743-38.372-36.601-38.372zm0 55.491c-4.329 0-8.658-3.936-8.658-17.12 0-13.184 4.329-17.12 8.658-17.12s8.658 3.936 8.658 17.12c0 13.184-4.329 17.12-8.658 17.12z" style="" fill="#d9e7ec" data-original="#d9e7ec"></path><path d="m225.372 392.247 30.069-44.033v-48.701l-63.324 92.734zM241.902 290.907c0-24.4-15.742-38.372-36.601-38.372S168.7 266.506 168.7 290.907c0 24.597 15.742 38.372 36.601 38.372s36.601-13.775 36.601-38.372zm-45.259 0c0-13.184 4.329-17.12 8.658-17.12s8.658 3.936 8.658 17.12c0 13.184-4.329 17.12-8.658 17.12s-8.658-3.936-8.658-17.12z" style="" fill="#fafcfd" data-original="#fafcfd"></path></g></svg>