<svg width="78" height="78" viewBox="0 0 78 78" fill="none" xmlns="http://www.w3.org/2000/svg">
<g clip-path="url(#clip0_25_27)">
<path d="M2.96385 36.2566C2.90992 36.0319 2.92256 35.7945 2.95257 35.671C3.02875 35.3157 3.26991 34.9195 3.97312 34.9195C4.62531 34.9195 5.00937 35.3249 5.00937 35.9323V36.6224H7.79071V35.8392C7.79071 33.4136 5.60366 33.0269 4.02705 33.0269C2.04643 33.0269 0.427934 33.6844 0.13193 35.5052C0.0510352 36.0051 0.0370195 36.4449 0.154172 37.0083C0.637102 39.2881 4.60002 39.9473 5.17664 41.3898C5.28465 41.658 5.2519 42.0024 5.19843 42.2132C5.10702 42.5882 4.85535 42.9664 4.10947 42.9664C3.4128 42.9664 2.99614 42.5606 2.99614 41.9511L2.99218 40.8783H0V41.7308C0 44.2239 1.95807 44.9737 4.05356 44.9737C6.06816 44.9737 7.72276 44.2871 7.99271 42.4209C8.12678 41.459 8.02623 40.833 7.98098 40.5957C7.51024 38.255 3.28118 37.5619 2.96385 36.2566ZM39.2282 36.2839C39.1785 36.0636 39.193 35.8297 39.2186 35.7074C39.2983 35.3505 39.5382 34.9612 40.2293 34.9612C40.8732 34.9612 41.2507 35.3627 41.2507 35.9653V36.6472H43.9999V35.87C43.9999 33.4673 41.8459 33.0898 40.2864 33.0898C38.3222 33.0898 36.7182 33.7373 36.4252 35.5452C36.3477 36.0372 36.3287 36.4738 36.4517 37.0313C36.9293 39.2853 40.8537 39.9394 41.4232 41.3648C41.5237 41.6348 41.4949 41.9792 41.4436 42.182C41.3583 42.553 41.1087 42.9262 40.369 42.9262C39.675 42.9262 39.2573 42.5274 39.2573 41.9261L39.2565 40.8559H36.2974V41.7067C36.2974 44.1715 38.2281 44.9152 40.3076 44.9152C42.2992 44.9152 43.944 44.2347 44.2079 42.3898C44.3337 41.4367 44.2388 40.8158 44.1882 40.5821C43.7272 38.2698 39.5446 37.5745 39.2282 36.2839ZM64.5482 42.3596L61.9222 33.382H57.7841V44.4164H60.5215L60.3626 35.1515L63.1826 44.4164H67.1513V33.382H64.396L64.5482 42.3596ZM11.938 33.382L9.87233 44.5327H12.8845L14.441 34.21L15.9601 44.5327H18.9514L16.8946 33.382H11.938ZM28.7806 33.382L27.3739 42.0984L25.9679 33.382H21.4188L21.1776 44.5327H23.9646L24.04 34.21L25.9575 44.5327H28.785L30.7043 34.21L30.78 44.5327H33.574L33.3244 33.382H28.7806ZM54.6925 33.382H51.8723V41.6311C51.8767 41.7748 51.8723 41.9363 51.8475 42.0548C51.7886 42.3318 51.554 42.8647 50.7759 42.8647C50.0079 42.8647 49.767 42.3318 49.7127 42.0548C49.6843 41.9364 49.681 41.7748 49.6843 41.6311V33.382H46.8651V41.3752C46.8615 41.5812 46.8777 42.0022 46.8899 42.1124C47.0844 44.1954 48.7259 44.8715 50.7759 44.8715C52.8296 44.8715 54.4702 44.1952 54.6684 42.1124C54.6841 42.0022 54.7045 41.5812 54.6923 41.3752L54.6925 33.382ZM74.0557 38.2738V39.9001H75.1987V41.5137C75.2022 41.6578 75.1943 41.8132 75.1695 41.9378C75.1242 42.2387 74.8381 42.7512 74.027 42.7512C73.2207 42.7512 72.9398 42.2387 72.891 41.9378C72.8706 41.8133 72.8617 41.6578 72.8617 41.5137V36.4173C72.8617 36.2371 72.8739 36.0398 72.9123 35.8905C72.9676 35.6187 73.2085 35.0833 74.0209 35.0833C74.8739 35.0833 75.0867 35.648 75.1356 35.8905C75.1678 36.0511 75.1696 36.3207 75.1696 36.3207V36.9394H77.9779V36.5736C77.9779 36.5736 77.9906 36.1919 77.9566 35.8357C77.7454 33.744 76.0221 33.0822 74.0458 33.0822C72.0661 33.0822 70.3775 33.7501 70.1314 35.8357C70.1092 36.0264 70.0752 36.3695 70.0752 36.5736V41.2617C70.0752 41.4658 70.0818 41.624 70.1197 41.9971C70.303 44.0313 72.0659 44.7524 74.0378 44.7524C76.022 44.7524 77.7727 44.0313 77.9592 41.9971C77.9922 41.624 77.9957 41.4658 78.0002 41.2617V38.2739L74.0557 38.2738Z" fill="white"/>
</g>
<defs>
<clipPath id="clip0_25_27">
<rect width="78" height="78" fill="white"/>
</clipPath>
</defs>
</svg>
